<?xml version="1.0" standalone="no"?><svg xmlns="http://www.w3.org/2000/svg" viewBox="0 0 1440 320"><path fill="#80C56D" fill-opacity="1" d="M0,64L21.8,96C43.6,128,87,192,131,197.3C174.5,203,218,149,262,133.3C305.5,117,349,139,393,144C436.4,149,480,139,524,128C567.3,117,611,107,655,117.3C698.2,128,742,160,785,154.7C829.1,149,873,107,916,122.7C960,139,1004,213,1047,224C1090.9,235,1135,181,1178,133.3C1221.8,85,1265,43,1309,37.3C1352.7,32,1396,64,1418,80L1440,96L1440,320L1418.2,320C1396.4,320,1353,320,1309,320C1265.5,320,1222,320,1178,320C1134.5,320,1091,320,1047,320C1003.6,320,960,320,916,320C872.7,320,829,320,785,320C741.8,320,698,320,655,320C610.9,320,567,320,524,320C480,320,436,320,393,320C349.1,320,305,320,262,320C218.2,320,175,320,131,320C87.3,320,44,320,22,320L0,320Z"></path></svg>